<svg width="16" height="20" viewBox="0 0 16 20" fill="none" xmlns="http://www.w3.org/2000/svg">
<path d="M10.918 0.234375H1.43359V19.7656H15.5469V4.79688L10.918 0.234375Z" fill="#FFDBD4"/>
<path d="M10.918 0.234375L15.5469 4.79688H10.918V0.234375Z" fill="#BF6149"/>
<path d="M13.3047 11.6719H0.453125V17.7695H13.3047V11.6719Z" fill="#BF6149"/>
<path d="M0.453125 17.7695L1.43359 18.5977V17.7695H0.453125Z" fill="#A84835"/>
<path d="M3.82031 15.6289C3.94141 15.6289 4.03125 15.5977 4.08984 15.5312C4.14844 15.4648 4.17969 15.3711 4.17969 15.25H4.98438L4.98828 15.2656C4.99609 15.5742 4.89062 15.8242 4.66797 16.0195C4.44922 16.2148 4.16406 16.3086 3.82031 16.3086C3.39063 16.3086 3.05859 16.1758 2.82813 15.9102C2.59766 15.6445 2.48047 15.3008 2.48047 14.875V14.8164C2.48047 14.3906 2.59766 14.0469 2.82813 13.7812C3.05859 13.5156 3.39062 13.3828 3.81641 13.3828C4.17578 13.3828 4.46094 13.4805 4.67578 13.6797C4.89062 13.8789 4.99609 14.1523 4.98828 14.4961L4.98438 14.5117H4.17969C4.17969 14.3789 4.14844 14.2695 4.08984 14.1836C4.02734 14.0977 3.9375 14.0586 3.82031 14.0586C3.64844 14.0586 3.53125 14.125 3.46484 14.2617C3.39844 14.3984 3.36328 14.582 3.36328 14.8125V14.8711C3.36328 15.1094 3.39844 15.293 3.46484 15.4258C3.52344 15.5625 3.64453 15.6289 3.82031 15.6289Z" fill="white"/>
<path d="M7.19181 15.4609C7.19181 15.3906 7.15275 15.3281 7.07462 15.2734C6.9965 15.2188 6.85197 15.168 6.64103 15.125C6.3129 15.0625 6.0629 14.9609 5.89884 14.8281C5.73087 14.6953 5.64884 14.5078 5.64884 14.2695C5.64884 14.0195 5.75431 13.8086 5.96134 13.6367C6.16837 13.4648 6.45353 13.3789 6.809 13.3789C7.184 13.3789 7.48478 13.4609 7.70743 13.6289C7.93009 13.7969 8.03556 14.0156 8.02384 14.2813L8.01993 14.2969H7.16447C7.16447 14.1875 7.13712 14.1016 7.08244 14.043C7.02775 13.9844 6.934 13.957 6.809 13.957C6.71525 13.957 6.64103 13.9805 6.57853 14.0313C6.51603 14.082 6.48478 14.1445 6.48478 14.2227C6.48478 14.2969 6.51994 14.3594 6.59415 14.4141C6.66447 14.4648 6.8129 14.5117 7.03165 14.5547C7.37931 14.6211 7.63322 14.7227 7.79728 14.8594C7.96134 14.9961 8.04337 15.1836 8.04337 15.4336C8.04337 15.6875 7.93009 15.8984 7.70743 16.0625C7.48087 16.2266 7.184 16.3086 6.8129 16.3086C6.43009 16.3086 6.1254 16.2109 5.90275 16.0156C5.68009 15.8203 5.57462 15.6016 5.58244 15.3633L5.58634 15.3477H6.38322C6.38712 15.4805 6.42618 15.5781 6.50431 15.6367C6.58243 15.6953 6.69181 15.7266 6.83244 15.7266C6.94962 15.7266 7.03947 15.7031 7.10197 15.6562C7.16056 15.6094 7.19181 15.5469 7.19181 15.4609Z" fill="white"/>
<path d="M9.88281 15.0898L9.93359 15.3906L9.94922 15.3945L10.0078 15.0938L10.3828 13.4336H11.3086L10.3906 16.2578H9.49609L8.57812 13.4336H9.50781L9.88281 15.0898Z" fill="white"/>
</svg>
