<svg width="50" height="50" viewBox="0 0 50 50" fill="none" xmlns="http://www.w3.org/2000/svg">
<path d="M14.5827 18.7494C15.964 18.7494 17.2888 18.2006 18.2655 17.2239C19.2423 16.2471 19.791 14.9224 19.791 13.541C19.791 12.1597 19.2423 10.8349 18.2655 9.85817C17.2888 8.88142 15.964 8.33268 14.5827 8.33268C13.2013 8.33268 11.8766 8.88142 10.8998 9.85817C9.92308 10.8349 9.37435 12.1597 9.37435 13.541C9.37435 14.9224 9.92308 16.2471 10.8998 17.2239C11.8766 18.2006 13.2013 18.7494 14.5827 18.7494ZM14.5827 22.916C13.3515 22.916 12.1325 22.6735 10.995 22.2024C9.8576 21.7313 8.82411 21.0407 7.95356 20.1701C7.08301 19.2996 6.39245 18.2661 5.92131 17.1287C5.45017 15.9912 5.20768 14.7722 5.20768 13.541C5.20768 12.3099 5.45017 11.0908 5.92131 9.95336C6.39245 8.81593 7.08301 7.78244 7.95356 6.91189C8.82411 6.04134 9.8576 5.35078 10.995 4.87965C12.1325 4.40851 13.3515 4.16602 14.5827 4.16602C17.0691 4.16602 19.4537 5.15374 21.2118 6.91189C22.97 8.67004 23.9577 11.0546 23.9577 13.541C23.9577 16.0274 22.97 18.412 21.2118 20.1701C19.4537 21.9283 17.0691 22.916 14.5827 22.916ZM36.4577 27.0827C37.5627 27.0827 38.6226 26.6437 39.404 25.8623C40.1854 25.0809 40.6243 24.0211 40.6243 22.916C40.6243 21.8109 40.1854 20.7511 39.404 19.9697C38.6226 19.1883 37.5627 18.7494 36.4577 18.7494C35.3526 18.7494 34.2928 19.1883 33.5114 19.9697C32.73 20.7511 32.291 21.8109 32.291 22.916C32.291 24.0211 32.73 25.0809 33.5114 25.8623C34.2928 26.6437 35.3526 27.0827 36.4577 27.0827ZM36.4577 31.2494C34.2475 31.2494 32.1279 30.3714 30.5651 28.8086C29.0023 27.2458 28.1243 25.1262 28.1243 22.916C28.1243 20.7059 29.0023 18.5863 30.5651 17.0235C32.1279 15.4607 34.2475 14.5827 36.4577 14.5827C38.6678 14.5827 40.7874 15.4607 42.3502 17.0235C43.913 18.5863 44.791 20.7059 44.791 22.916C44.791 25.1262 43.913 27.2458 42.3502 28.8086C40.7874 30.3714 38.6678 31.2494 36.4577 31.2494ZM41.666 43.7494V42.7077C41.666 41.3263 41.1173 40.0016 40.1405 39.0248C39.1638 38.0481 37.839 37.4994 36.4577 37.4994C35.0763 37.4994 33.7516 38.0481 32.7748 39.0248C31.7981 40.0016 31.2493 41.3263 31.2493 42.7077V43.7494H27.0827V42.7077C27.0827 41.4765 27.3252 40.2575 27.7963 39.12C28.2674 37.9826 28.958 36.9491 29.8286 36.0786C30.6991 35.208 31.7326 34.5175 32.87 34.0463C34.0075 33.5752 35.2265 33.3327 36.4577 33.3327C37.6888 33.3327 38.9079 33.5752 40.0453 34.0463C41.1828 34.5175 42.2163 35.208 43.0868 36.0786C43.9574 36.9491 44.6479 37.9826 45.1191 39.12C45.5902 40.2575 45.8327 41.4765 45.8327 42.7077V43.7494H41.666ZM20.8327 43.7494V35.416C20.8327 34.5953 20.671 33.7825 20.3569 33.0242C20.0428 32.266 19.5825 31.577 19.0021 30.9966C18.4217 30.4162 17.7327 29.9559 16.9745 29.6418C16.2162 29.3277 15.4034 29.166 14.5827 29.166C13.7619 29.166 12.9492 29.3277 12.1909 29.6418C11.4326 29.9559 10.7436 30.4162 10.1633 30.9966C9.5829 31.577 9.12253 32.266 8.80844 33.0242C8.49434 33.7825 8.33268 34.5953 8.33268 35.416V43.7494H4.16602V35.416C4.16602 32.6533 5.26348 30.0038 7.21699 28.0503C9.17049 26.0968 11.82 24.9994 14.5827 24.9994C17.3454 24.9994 19.9949 26.0968 21.9484 28.0503C23.9019 30.0038 24.9993 32.6533 24.9993 35.416V43.7494H20.8327Z" fill="url(#paint0_linear_1098_2482)"/>
<defs>
<linearGradient id="paint0_linear_1098_2482" x1="24.9993" y1="4.16602" x2="24.9993" y2="43.7494" gradientUnits="userSpaceOnUse">
<stop stop-color="#BC041B"/>
<stop offset="1" stop-color="#F71D00"/>
</linearGradient>
</defs>
</svg>
