<svg width="306" height="462" viewBox="0 0 306 462" fill="none" xmlns="http://www.w3.org/2000/svg">
<path d="M61 30.7969V431.197C61 448.208 47.3482 462 30.497 462C13.6458 462 0 448.208 0 431.197V30.7969C0 13.7854 13.6518 0.000346811 30.497 0.000346811C38.5062 -0.0385827 46.2245 3.20119 52.0624 9.05244C54.8646 11.8337 57.1032 15.1978 58.6404 18.9375C60.1775 22.6773 60.9805 26.7133 61 30.7969Z" fill="#008479"/>
<path d="M184 153.815V431.179C184 448.2 170.124 462 153.003 462C135.882 462 122 448.2 122 431.179V153.815C122 136.793 135.876 123 153.003 123C161.142 122.962 168.984 126.204 174.916 132.058C177.764 134.841 180.039 138.207 181.601 141.949C183.163 145.691 183.98 149.729 184 153.815Z" fill="#FF914C"/>
<path d="M306 276.854V431.14C306 448.183 292.348 462 275.503 462C258.658 462 245 448.183 245 431.14V276.854C245 259.811 258.658 246.001 275.503 246.001C283.506 245.954 291.222 249.188 297.062 255.037C299.867 257.828 302.108 261.203 303.645 264.956C305.182 268.708 305.984 272.757 306 276.854Z" fill="#008479"/>
</svg>
